<!DOCTYPE svg PUBLIC "-//W3C//DTD SVG 1.1//EN" "http://www.w3.org/Graphics/SVG/1.1/DTD/svg11.dtd">
<!-- Uploaded to: SVG Repo, www.svgrepo.com, Transformed by: SVG Repo Mixer Tools -->
<svg height="800px" width="800px" version="1.1" id="Capa_1" xmlns="http://www.w3.org/2000/svg" xmlns:xlink="http://www.w3.org/1999/xlink" viewBox="-3.2 -3.2 38.40 38.40" xml:space="preserve" fill="#000000" transform="rotate(0)">
<g id="SVGRepo_bgCarrier" stroke-width="0" transform="translate(0,0), scale(1)">
<path transform="translate(-3.2, -3.2), scale(1.2)" d="M16,28.364880758484727C17.810221975826906,28.536233193806545,18.408915332643062,25.705763388102675,19.799870585523514,24.534649071162754C20.813838745291793,23.68093891307766,22.04062896999097,23.19095762190682,23.096653597357857,22.38985560004183C24.316334125069346,21.464603942592024,25.478004014746432,20.52912695327146,26.53715944341934,19.423730645513515C28.04846948885353,17.846439438883287,31.01043481274785,16.61724973961373,30.699565939109593,14.455013363232503C30.381645872703864,12.24373268942686,26.234800483450133,12.662402454476211,25.275032735975316,10.645057353142064C24.19162055746831,8.367822827615127,27.22324402370545,4.824957008049312,25.32703470659839,3.1624380582308245C23.536677195610714,1.5927256524780922,20.78737049707349,4.850585596966455,18.416407838562883,4.6316949259173406C16.408555593869863,4.446327128735579,15.043386334512936,2.136830497854005,13.029980403162046,2.027156378975084C10.987934411844538,1.9159221805848399,8.350791913817602,2.2714115582505707,7.30051847595662,4.026190912833677C6.0688189113471775,6.084094016074622,7.570941502312749,8.738882370518425,7.577412104781313,11.137216611422202C7.581012084273824,12.471552034651573,7.355313079243191,13.754677599920083,7.330364877261626,15.088784630392126C7.307076914983561,16.334110214315626,7.47032817128463,17.538096026995717,7.434431379496511,18.783121954236105C7.383265493125192,20.55773333172445,5.815503661232663,22.7846152918731,7.072324786789945,24.038514868151907C8.369884815548147,25.33305864782843,10.858039726215921,23.04504871187299,12.507464695670706,23.84436272768233C14.239962402367702,24.68393392671553,14.083358991844777,28.18345488432637,16,28.364880758484727" fill="#fcff66" strokewidth="0"/>
</g>
<g id="SVGRepo_tracerCarrier" stroke-linecap="round" stroke-linejoin="round" stroke="#CCCCCC" stroke-width="0.128"/>
<g id="SVGRepo_iconCarrier"> <g> <g id="question_x5F_mark"> <g> <path style="fill:#010204;" d="M17.6,30c0,1.102-0.895,2-2,2s-2-0.898-2-2c0-1.109,0.895-2,2-2S17.6,28.891,17.6,30z"/> <path style="fill:#010204;" d="M15.676,25.977c-1.336,0-2.59-0.523-3.535-1.469c-0.945-1.105-1.465-2.359-1.465-3.695 s0.52-2.59,1.465-3.371l6.688-6.688C19.584,9.996,20,8.992,20,7.926c0-1.07-0.416-2.074-1.172-2.828 c-1.559-1.559-4.096-1.562-5.654,0C12.416,5.852,12,6.855,12,7.926H8c0-2.137,0.834-4.148,2.348-5.66 c3.02-3.023,8.285-3.02,11.309,0.004C23.168,3.777,24,5.785,24,7.926c0,2.137-0.832,4.145-2.344,5.656l-6.688,6.523 c-0.389,0.391-0.389,1.023,0,1.414c0.391,0.391,1.023,0.391,1.414,0c0.254-0.258,0.293-0.555,0.293-0.711h4 c0,1.336-0.52,2.594-1.465,3.699C18.266,25.453,17.012,25.977,15.676,25.977L15.676,25.977z"/> </g> </g> </g> </g>
</svg>